<?xml version="1.0" encoding="utf-8"?>
<svg width="200px" height="200px" viewBox="0 0 200 200" version="1.1" xmlns:xlink="http://www.w3.org/1999/xlink" xmlns="http://www.w3.org/2000/svg">
  <defs>
    <path d="M0 0L200 0L200 200L0 200L0 0Z" id="path_1" />
    <clipPath id="mask_1">
      <use xlink:href="#path_1" />
    </clipPath>
  </defs>
  <g id="Whatsapp-icon">
    <path d="M0 0L200 0L200 200L0 200L0 0Z" id="Background" fill="none" fill-rule="evenodd" stroke="none" />
    <g clip-path="url(#mask_1)">
      <path d="M100 8C49.2381 8 8 49.2381 8 100C8 116.316 12.4747 131.544 19.9375 144.836L8.14844 186.922C7.76517 188.292 8.13881 189.763 9.12968 190.785C10.1205 191.806 11.5794 192.224 12.9609 191.883L56.8438 181.008C69.7385 187.892 84.3704 192 100 192C150.762 192 192 150.762 192 100C192 49.2381 150.762 8 100 8L100 8ZM100 16C146.438 16 184 53.5619 184 100C184 146.438 146.438 184 100 184C85.1121 184 71.1685 180.119 59.0469 173.336C58.1603 172.841 57.1185 172.701 56.1328 172.945L17.7031 182.469L28.0078 145.703C28.3058 144.653 28.1618 143.527 27.6094 142.586C20.2427 130.094 16 115.56 16 100C16 53.5619 53.5619 16 100 16L100 16ZM66.5703 52C64.0062 52 60.3442 52.954 57.3359 56.1953C55.5291 58.1422 48 65.478 48 78.375C48 91.8211 57.3256 103.423 58.4531 104.914L58.4609 104.914L58.4609 104.922C58.354 104.781 59.8921 107.009 61.9453 109.68C63.9985 112.351 66.8696 115.859 70.4766 119.656C77.6904 127.252 87.8331 136.03 100.422 141.398C106.219 143.867 110.793 145.358 114.258 146.445C120.679 148.462 126.528 148.155 130.922 147.508C134.211 147.023 137.828 145.444 141.406 143.18C144.985 140.915 148.492 138.099 150.039 133.82C151.147 130.753 151.71 127.918 151.914 125.586C152.016 124.42 152.029 123.39 151.953 122.438C151.877 121.485 151.958 120.755 151.07 119.297C149.208 116.239 147.099 116.159 144.898 115.07C143.676 114.465 140.195 112.765 136.703 111.102C133.216 109.44 130.196 107.968 128.336 107.305C127.161 106.882 125.726 106.273 123.656 106.508C121.586 106.742 119.542 108.236 118.352 110C117.223 111.672 112.682 117.033 111.297 118.609C111.278 118.598 111.399 118.654 110.852 118.383C109.139 117.535 107.045 116.815 103.945 115.18C100.846 113.545 96.969 111.131 92.7266 107.391L92.7266 107.383C86.4121 101.824 81.9891 94.8444 80.5938 92.5C80.6878 92.3882 80.5826 92.5236 80.7813 92.3281L80.7891 92.3203C82.2151 90.9157 83.479 89.2381 84.5469 88.0078C86.061 86.2635 86.7292 84.7257 87.4531 83.2891C88.8958 80.4258 88.0925 77.275 87.2578 75.6172L87.2578 75.6094C87.3155 75.7241 86.8063 74.6006 86.2578 73.3047C85.7078 72.0051 85.0067 70.3202 84.2578 68.5234C82.7601 64.93 81.0881 60.8996 80.0938 58.5391L80.0938 58.5312C78.9224 55.7507 77.3376 53.7476 75.2656 52.7812C73.1937 51.8149 71.3631 52.0896 71.2891 52.0859L71.2813 52.0859C69.8027 52.0177 68.1802 52 66.5703 52L66.5703 52ZM66.5703 60C68.1125 60 69.6329 60.0188 70.9063 60.0781C72.2162 60.1434 72.1348 60.1488 71.8828 60.0312C71.6269 59.9119 71.9741 59.8731 72.7188 61.6406C73.6924 63.952 75.3727 67.997 76.875 71.6016C77.6262 73.4038 78.3292 75.0953 78.8906 76.4219C79.4521 77.7485 79.7563 78.4892 80.1094 79.1953L80.1094 79.2031L80.1172 79.2109C80.4633 79.8939 80.4327 79.4566 80.3125 79.6953C79.4684 81.3706 79.3538 81.782 78.5 82.7656C77.1999 84.2634 75.8738 85.9336 75.1719 86.625C74.5578 87.2283 73.4497 88.1681 72.7578 90.0078C72.0649 91.8503 72.3883 94.3783 73.5 96.2656C74.9801 98.7784 79.8576 106.717 87.4375 113.391C92.211 117.599 96.6582 120.384 100.211 122.258C103.764 124.132 106.657 125.226 107.305 125.547C108.842 126.308 110.523 126.899 112.477 126.664C114.431 126.429 116.115 125.244 117.188 124.031L117.195 124.023C118.623 122.405 122.863 117.563 124.898 114.578C124.985 114.609 124.956 114.585 125.633 114.828L125.633 114.836L125.641 114.836C125.949 114.946 129.817 116.677 133.266 118.32C136.714 119.964 140.214 121.671 141.352 122.234C142.993 123.047 143.768 123.576 143.969 123.578C143.982 123.93 143.996 124.311 143.945 124.891C143.805 126.497 143.376 128.721 142.516 131.102C142.094 132.267 139.9 134.671 137.133 136.422C134.366 138.173 130.997 139.41 129.75 139.594C126 140.146 121.547 140.348 116.656 138.813C113.265 137.748 109.037 136.37 103.563 134.039C92.4593 129.304 83.0224 121.246 76.2813 114.148C72.9107 110.6 70.2103 107.296 68.2891 104.797C66.3715 102.302 65.5341 101.004 64.8359 100.086L64.8281 100.078C63.5888 98.4392 56 87.8834 56 78.375C56 68.312 60.674 64.3657 63.2031 61.6406C64.5309 60.21 65.9825 60 66.5703 60L66.5703 60Z" id="Shape" fill="#FFFFFF" fill-rule="evenodd" stroke="none" />
    </g>
  </g>
</svg>