<?xml version="1.0" encoding="utf-8"?>
<svg width="200px" height="200px" viewBox="0 0 200 200" version="1.1" xmlns:xlink="http://www.w3.org/1999/xlink" xmlns="http://www.w3.org/2000/svg">
  <defs>
    <path d="M0 0L200 0L200 200L0 200L0 0Z" id="path_1" />
    <clipPath id="mask_1">
      <use xlink:href="#path_1" />
    </clipPath>
  </defs>
  <g id="Instagram-icon">
    <path d="M0 0L200 0L200 200L0 200L0 0Z" id="Background" fill="none" fill-rule="evenodd" stroke="none" />
    <g clip-path="url(#mask_1)">
      <path d="M64 12C35.3299 12 12 35.3299 12 64L12 136C12 164.67 35.3299 188 64 188L136 188C164.67 188 188 164.67 188 136L188 64C188 35.3299 164.67 12 136 12L64 12L64 12ZM64 20L136 20C160.346 20 180 39.6541 180 64L180 136C180 160.346 160.346 180 136 180L64 180C39.6541 180 20 160.346 20 136L20 64C20 39.6541 39.6541 20 64 20L64 20ZM148 44C143.582 44 140 47.5817 140 52C140 56.4183 143.582 60 148 60C152.418 60 156 56.4183 156 52C156 47.5817 152.418 44 148 44L148 44ZM100 56C75.7468 56 56 75.7468 56 100C56 124.253 75.7468 144 100 144C124.253 144 144 124.253 144 100C144 75.7468 124.253 56 100 56L100 56ZM100 64C119.93 64 136 80.0704 136 100C136 119.93 119.93 136 100 136C80.0704 136 64 119.93 64 100C64 80.0704 80.0704 64 100 64L100 64Z" id="Shape" fill="#FFFFFF" fill-rule="evenodd" stroke="none" />
    </g>
  </g>
</svg>